<svg width="180" height="60" viewBox="0 0 180 60" xmlns="http://www.w3.org/2000/svg" role="img" aria-label="Torch icons">
  <defs>
    <linearGradient id="flame" x1="0" x2="1"><stop offset="0" stop-color="#FFD166"/><stop offset="1" stop-color="#FF5C3C"/></linearGradient>
  </defs>

  <g transform="translate(18,0)">
    <rect x="30" y="34" width="18" height="18" rx="6" fill="#4B2E2E" />
    <path d="M39 12 C44 8 52 8 56 16 C52 14 48 18 44 22 C40 26 38 20 39 12 Z" fill="url(#flame)" stroke="#B73E1D" stroke-width="0.6">
      <animate attributeName="opacity" values="1;0.6;1" dur="1.8s" repeatCount="indefinite" />
    </path>
  </g>

  <g transform="translate(78,0)">
    <rect x="30" y="34" width="18" height="18" rx="6" fill="#4B2E2E" />
    <path d="M39 12 C44 6 56 8 56 16 C52 14 48 18 44 22 C40 26 38 20 39 12 Z" fill="url(#flame)" stroke="#B73E1D" stroke-width="0.6">
      <animate attributeName="opacity" values="0.8;1;0.8" dur="2.1s" repeatCount="indefinite" />
    </path>
  </g>

  <g transform="translate(138,0)">
    <rect x="30" y="34" width="18" height="18" rx="6" fill="#4B2E2E" />
    <path d="M39 12 C44 10 54 6 56 16 C52 14 48 18 44 22 C40 26 38 20 39 12 Z" fill="url(#flame)" stroke="#B73E1D" stroke-width="0.6">
      <animate attributeName="opacity" values="1;0.7;1" dur="1.6s" repeatCount="indefinite" />
    </path>
  </g>
</svg>
